<?xml version="1.0" standalone="no"?>
<!DOCTYPE svg PUBLIC "-//W3C//DTD SVG 20010904//EN"
 "http://www.w3.org/TR/2001/REC-SVG-20010904/DTD/svg10.dtd">
<svg version="1.0" xmlns="http://www.w3.org/2000/svg"
 width="472.000000pt" height="472.000000pt" viewBox="0 0 472.000000 472.000000"
 preserveAspectRatio="xMidYMid meet">
<metadata>
Created by potrace 1.11, written by Peter Selinger 2001-2013
</metadata>
<g transform="translate(0.000000,472.000000) scale(0.100000,-0.100000)"
fill="#000000" stroke="none">
<path d="M2268 4505 c-2 -1 -42 -5 -89 -9 -47 -4 -95 -8 -106 -10 -11 -3 -36
-7 -54 -10 -231 -39 -432 -108 -647 -221 -228 -121 -459 -308 -630 -510 -312
-368 -493 -863 -495 -1350 0 -130 8 -278 17 -306 3 -8 7 -32 10 -54 27 -207
122 -482 238 -690 185 -330 446 -599 776 -799 50 -30 92 -53 92 -50 0 3 12 -3
27 -14 69 -47 339 -147 483 -177 8 -2 36 -8 62 -14 51 -12 147 -26 242 -36 33
-3 63 -8 68 -11 4 -3 8 1 8 8 0 8 3 9 8 3 7 -11 232 -15 232 -5 0 3 15 6 33 6
27 0 136 14 229 30 15 2 80 18 144 34 273 71 551 209 778 387 103 82 302 285
374 383 34 47 66 90 70 95 20 26 113 187 145 250 69 139 153 381 172 495 3 19
8 42 10 50 2 8 7 31 9 50 3 19 8 51 11 70 16 109 27 373 16 394 -2 5 -5 32 -7
60 -1 28 -5 65 -8 81 -2 17 -7 50 -11 75 -3 25 -8 56 -10 70 -3 14 -7 34 -9
45 -2 11 -11 47 -20 80 -10 33 -18 65 -20 70 -39 151 -154 402 -253 554 -184
284 -433 521 -726 693 -62 36 -307 151 -327 153 -3 1 -43 13 -90 28 -47 15
-98 32 -115 37 -39 12 -247 49 -316 56 -56 6 -317 13 -321 9z"/>
</g>
</svg>
